<svg t="1759164241658" class="icon" viewBox="0 0 1024 1024" version="1.1" xmlns="http://www.w3.org/2000/svg" p-id="11438" width="128" height="128"><path d="M512 1024a128.103 128.103 0 0 1-111.806-65.726A128 128 0 0 1 181.91 896.87 128 128 0 0 1 55.794 675.154C19.143 606.537 0 529.223 0 448 0 184.229 210.549 0 512 0s512 184.229 512 448c0 81.223-19.143 158.537-55.84 227.131a128 128 0 0 1-126.114 221.715A128 128 0 0 1 623.76 958.25 128.103 128.103 0 0 1 512 1024z" fill="#2D1B69" p-id="11439"></path><path d="M896 704c-2.377 0-4.731 0.149-7.051 0.354C941.714 634.126 972.8 546.64 972.8 448c0-254.491-206.309-396.8-460.8-396.8S51.2 193.509 51.2 448c0 98.64 31.074 186.126 83.851 256.354-2.285-0.205-4.674-0.354-7.051-0.354a76.8 76.8 0 1 0 76.8 76.8c0-1.337-0.137-2.651-0.206-3.977a443.097 443.097 0 0 0 51.212 36.571A76.766 76.766 0 1 0 384 870.4c0-1.143-0.114-2.206-0.171-3.314a498.423 498.423 0 0 0 53.622 10.743 76.8 76.8 0 1 0 149.098 0 498.423 498.423 0 0 0 53.622-10.743c0 1.143-0.171 2.194-0.171 3.314a76.8 76.8 0 1 0 128.194-56.96 443.097 443.097 0 0 0 51.212-36.571c-0.069 1.325-0.206 2.64-0.206 3.977A76.8 76.8 0 1 0 896 704z" fill="#4A2C85" p-id="11440"></path><path d="M972.8 780.8a76.8 76.8 0 0 1-153.6 0c0-1.28 0.126-2.686 0.251-3.966a431.531 431.531 0 0 1-51.325 36.572A76.743 76.743 0 1 1 640 870.4c0-1.143 0.126-2.171 0.126-3.326a484.571 484.571 0 0 1-53.635 10.755 76.8 76.8 0 1 1-148.982 0 484.571 484.571 0 0 1-53.635-10.755c0 1.143 0.126 2.172 0.126 3.326a76.8 76.8 0 1 1-128.126-56.96 431.531 431.531 0 0 1-51.325-36.571c0.125 1.28 0.251 2.685 0.251 3.965a76.8 76.8 0 1 1-84.869-76.411A515.943 515.943 0 0 0 428.8 806.4c281.349 0 510.206-224 518.274-503.429C963.714 346.114 972.8 394.63 972.8 448c0 98.686-31.109 186.114-83.84 256.389A61.554 61.554 0 0 1 896 704a76.869 76.869 0 0 1 76.8 76.8z" fill="#1A0F3D" p-id="11441"></path><path d="M512 550.4a64.069 64.069 0 0 1-64-64 12.8 12.8 0 1 1 25.6 0 38.4 38.4 0 0 0 76.8 0 12.8 12.8 0 1 1 25.6 0 64.069 64.069 0 0 1-64 64zM345.6 384a38.4 38.4 0 1 0 76.8 0 38.4 38.4 0 1 0-76.8 0zM601.6 384a38.4 38.4 0 1 0 76.8 0 38.4 38.4 0 1 0-76.8 0z" fill="#FF4444" p-id="11442"></path><path d="M332.8 448h-51.2a25.6 25.6 0 1 0 0 51.2h51.2a25.6 25.6 0 1 0 0-51.2z m409.6 0h-51.2a25.6 25.6 0 1 0 0 51.2h51.2a25.6 25.6 0 0 0 0-51.2z" fill="#8B4513" p-id="11443"></path><path d="M400 150 L420 120 L440 150 Z" fill="#8B4513"></path><path d="M584 150 L604 120 L624 150 Z" fill="#8B4513"></path></svg>